<svg xmlns="http://www.w3.org/2000/svg" width="126" height="48"><path d="M25.721 34.563H5.777A5.767 5.767 0 0 1 0 28.786v-6.774a5.767 5.767 0 0 1 5.777-5.777h14.201a5.767 5.767 0 0 1 5.777 5.777v5.777H6.395v-4.78h14.58v-1.994H4.816v8.768h20.94l-.034 4.78zm77.232-11.21c-.172-3.336-2.339-6.224-4.78-8.356-4.092-3.507-9.044-5.777-14.064-7.668C73.62 3.546 62.549 1.689 51.476.658 48.588.383 42.742.142 42.742.142s7.325-.172 9.766-.137c1.994.034 9.078.275 12.07.515 10.66.86 28.506 3.198 41.985 7.944 5.021 1.856 10.007 4.057 14.099 7.599 2.132 1.926 4.16 4.642 4.092 7.703v.103c.068 3.026-1.926 5.742-4.092 7.702-4.092 3.507-9.078 5.708-14.099 7.565-13.48 4.78-31.326 7.084-41.986 7.943-3.026.241-10.075.482-12.07.516-2.44.069-9.765-.137-9.765-.137s5.812-.276 8.734-.516C62.55 45.91 73.621 44.053 84.11 40.27c5.02-1.857 9.972-4.127 14.064-7.668 2.441-2.132 4.573-4.986 4.78-8.356v-.894z" fill-rule="evenodd" fill="#fff"/><path d="M92.465 14.825c0 1.066-.86 1.926-1.96 1.926s-1.96-.86-1.96-1.926c0-1.066.894-1.891 1.994-1.891 1.066-.035 1.926.825 1.926 1.891m-3.404 0c0 .825.618 1.479 1.444 1.479.825 0 1.41-.654 1.41-1.479 0-.825-.585-1.479-1.445-1.479-.79 0-1.41.654-1.41 1.479m1.17.929h-.516V13.93a3.51 3.51 0 0 1 .756-.069c.379 0 .55.069.688.138a.466.466 0 0 1 .206.378c0 .206-.172.378-.412.447v.034c.206.07.31.207.344.482.068.275.103.378.137.447h-.55c-.069-.069-.103-.24-.137-.413-.035-.206-.138-.275-.344-.275h-.207l.035.654m0-1.032h.172c.24 0 .378-.069.378-.24 0-.173-.138-.241-.344-.241h-.206v.48zm-34.043 3.921H43.774v16.23H38.03v-16.23H25.618v-5.743h30.57v5.743zm25.859 16.23H58.078V29.13H83.25v-2.373H63.993a6.89 6.89 0 0 1-6.912-6.912 6.89 6.89 0 0 1 6.912-6.911H87.96v5.742H62.79v2.373h19.256a6.912 6.912 0 0 1 0 13.823z" fill-rule="evenodd" fill="#fff"/></svg>