<svg xmlns="http://www.w3.org/2000/svg" width="350" height="40"><path d="M21.472 28.79H4.808A4.812 4.812 0 0 1 0 23.984v-5.638a4.812 4.812 0 0 1 4.808-4.808h11.856a4.812 4.812 0 0 1 4.808 4.808v4.808H5.306v-3.979h12.187v-1.658H3.979v7.296h17.493v3.979zm64.582-9.367c-.166-2.819-1.907-5.223-3.98-6.964-3.398-2.902-7.543-4.809-11.772-6.384-8.787-3.15-17.99-4.725-27.275-5.554-2.404-.25-7.295-.415-7.295-.415s6.134-.166 8.207-.083c1.658 0 7.544.249 10.114.415 8.871.746 23.794 2.653 35.069 6.632 4.145 1.575 8.373 3.4 11.772 6.3 1.824 1.659 3.482 3.897 3.399 6.467v.083c.083 2.57-1.658 4.809-3.399 6.467-3.399 2.901-7.627 4.808-11.772 6.3-11.275 3.98-26.198 5.97-35.069 6.633-2.487.166-8.456.414-10.114.414-2.073.083-8.207-.083-8.207-.083s4.89-.248 7.295-.414c9.285-.83 18.488-2.404 27.275-5.555 4.146-1.575 8.374-3.482 11.773-6.383 2.072-1.741 3.813-4.146 3.98-6.964v-.912z" fill="#3bb44a"/><path d="M77.266 12.293c0 .912-.746 1.575-1.658 1.575-.912 0-1.658-.746-1.658-1.575 0-.912.746-1.575 1.658-1.575.912 0 1.658.746 1.658 1.575m-2.818 0c0 .663.497 1.244 1.16 1.244.664 0 1.161-.58 1.161-1.244 0-.663-.497-1.244-1.244-1.244-.58 0-1.077.58-1.077 1.244m.912.829h-.415V11.63c.083 0 .332-.083.663-.083.332 0 .498.083.58.083.084.083.166.166.166.331a.357.357 0 0 1-.331.332c.166.083.249.166.332.415.082.248.082.331.082.331h-.414c-.083-.083-.083-.166-.083-.332 0-.165-.083-.248-.249-.248h-.331v.663m.082-.912h.166c.166 0 .332-.083.332-.249 0-.165-.083-.248-.332-.248h-.166v.497z" fill="#030303"/><path d="M46.924 15.526H36.56v13.596h-4.809V15.526H21.39v-4.808h25.535v4.808zm21.637 13.596H48.5v-4.808h21.057v-1.99H53.473a5.768 5.768 0 0 1-5.803-5.803 5.768 5.768 0 0 1 5.803-5.803h20.063v4.808H52.478v1.99h16.083a5.768 5.768 0 0 1 5.804 5.803c0 3.15-2.57 5.803-5.803 5.803zm56.79-4.393h-9.534c-1.327 0-2.487-1.078-2.487-2.488v-4.145c0-1.326 1.077-2.487 2.487-2.487h7.047c1.326 0 2.487 1.078 2.487 2.487v2.902h-10.446v2.155h10.446v1.576m-1.575-5.306v-2.156h-8.871v2.156h8.871zm181.974 5.306h-.995v-1.907h.995v1.907zm13.43 0h-8.373c-1.078 0-1.907-.912-1.907-2.156v-5.057c0-1.16.829-2.156 1.907-2.156h8.373v.83h-9.534v7.71h9.534v.829zm12.104-2.156c0 1.16-.829 2.156-1.907 2.156h-6.466c-1.078 0-1.907-.912-1.907-2.156v-5.057c0-1.16.829-2.156 1.907-2.156h6.466c1.078 0 1.907.912 1.907 2.156v5.057m-.746 1.326v-7.71h-8.788v7.71h8.788zm18.57.83h-.746v-8.457h-6.632v8.457h-.746v-8.457h-6.632v8.457h-.747v-9.286h13.514c1.077 0 1.906.912 1.906 2.156v7.13h.083zM138.532 13.951h-6.134V24.73h-1.907V13.95h-6.135v-1.907h14.094v1.907h.082zm13.845 10.778H141.02a2.883 2.883 0 0 1-2.902-2.902v-4.974a2.883 2.883 0 0 1 2.902-2.902h8.373a2.883 2.883 0 0 1 2.901 2.902v3.399h-12.352v2.57h12.352v1.907h.083m-1.906-6.384v-2.57h-10.529v2.57h10.529zm18.156 6.384h-11.856a2.883 2.883 0 0 1-2.901-2.902v-.498a2.883 2.883 0 0 1 2.901-2.901h9.949v-2.57h-12.353V13.95h11.358a2.884 2.884 0 0 1 2.902 2.902v7.876m-1.907-1.907v-2.57h-11.026v2.57h11.026zm25.12 1.908h-1.907v-8.954h-7.71v8.954h-1.907v-8.954h-7.71v8.954h-1.907V13.95h18.073a2.884 2.884 0 0 1 2.902 2.902v7.876h.166zm16.415-2.902a2.884 2.884 0 0 1-2.902 2.902h-11.358v-1.907h12.353v-3.565h-9.949a2.883 2.883 0 0 1-2.901-2.902V15.03a2.883 2.883 0 0 1 2.901-2.902h11.358v1.907h-12.352v3.482h9.948a2.884 2.884 0 0 1 2.902 2.902v1.409zm15.917 0a2.883 2.883 0 0 1-2.901 2.902h-9.452v3.979h-1.906v-14.84h11.358a2.883 2.883 0 0 1 2.901 2.902v5.057m-1.907.995v-7.047h-10.528v7.047h10.528zm18.322-.995a2.883 2.883 0 0 1-2.901 2.902h-8.374a2.883 2.883 0 0 1-2.901-2.902v-4.974a2.883 2.883 0 0 1 2.901-2.902h8.374a2.883 2.883 0 0 1 2.901 2.902v4.974m-1.907.995v-7.047h-10.528v7.047h10.528zm18.405 1.907h-1.907v-8.954h-10.529v8.954h-1.823V13.95h11.357a2.883 2.883 0 0 1 2.902 2.902v7.876zm16.415-2.902a2.883 2.883 0 0 1-2.902 2.902h-11.357v-1.907h12.352v-2.57h-9.948a2.884 2.884 0 0 1-2.902-2.902v-.497a2.884 2.884 0 0 1 2.902-2.902h11.358v1.907H260.65v2.57h9.948a2.883 2.883 0 0 1 2.902 2.901v.498zm15.918 0a2.884 2.884 0 0 1-2.902 2.902h-8.373a2.884 2.884 0 0 1-2.902-2.902v-4.974a2.884 2.884 0 0 1 2.902-2.902h8.373a2.884 2.884 0 0 1 2.902 2.902v4.974m-1.907.995v-7.047h-10.529v7.047h10.529zm18.322-3.482h-1.907v-3.565h-10.529v8.954h-1.907V13.95h11.358a2.884 2.884 0 0 1 2.902 2.902v2.487h.083z"/></svg>